# 3ds Max Wavefront OBJ Exporter v0.97b - (c)2007 guruware
# File Created: 17.12.2020 21:30:29

mtllib chtree1.mtl

#
# object Plane001
#

v  -7.7932 27.2115 0.0630
v  -7.7932 0.0678 0.0630
v  7.5527 0.0678 0.0630
v  7.5527 27.2115 0.0630
# 4 vertices

vn 0.0000 0.0000 1.0000
# 1 vertex normals

vt 0.0000 1.0000 0.0000
vt 0.0000 0.0000 0.0000
vt 1.0000 0.0000 0.0000
vt 1.0000 1.0000 0.0000
# 4 texture coords

g Plane001
usemtl Material__25
s 1
f 1/1/1 2/2/1 3/3/1 4/4/1 
# 1 polygons

#
# object Plane002
#

v  -5.5458 27.2115 -5.3626
v  -5.5458 0.0678 -5.3626
v  5.3053 0.0678 5.4886
v  5.3053 27.2115 5.4886
# 4 vertices

vn -0.7071 0.0000 0.7071
# 1 vertex normals

vt 0.0000 1.0000 0.0000
vt 0.0000 0.0000 0.0000
vt 1.0000 0.0000 0.0000
vt 1.0000 1.0000 0.0000
# 4 texture coords

g Plane002
usemtl Material__25
s 1
f 5/5/2 6/6/2 7/7/2 8/8/2 
# 1 polygons

#
# object Plane003
#

v  -5.5458 27.2115 5.4886
v  -5.5458 0.0678 5.4886
v  5.3053 0.0678 -5.3626
v  5.3053 27.2115 -5.3626
# 4 vertices

vn 0.7071 0.0000 0.7071
# 1 vertex normals

vt 0.0000 1.0000 0.0000
vt 0.0000 0.0000 0.0000
vt 1.0000 0.0000 0.0000
vt 1.0000 1.0000 0.0000
# 4 texture coords

g Plane003
usemtl Material__25
s 1
f 9/9/3 10/10/3 11/11/3 12/12/3 
# 1 polygons

#
# object Plane004
#

v  -0.1203 27.2115 7.7359
v  -0.1203 0.0678 7.7359
v  -0.1203 0.0678 -7.6100
v  -0.1203 27.2115 -7.6100
# 4 vertices

vn 1.0000 0.0000 0.0000
# 1 vertex normals

vt 0.0000 1.0000 0.0000
vt 0.0000 0.0000 0.0000
vt 1.0000 0.0000 0.0000
vt 1.0000 1.0000 0.0000
# 4 texture coords

g Plane004
usemtl Material__25
s 1
f 13/13/4 14/14/4 15/15/4 16/16/4 
# 1 polygons

